<?xml version="1.0" ?>

<!-- Uploaded to: SVG Repo, www.svgrepo.com, Generator: SVG Repo Mixer Tools -->
<svg width="800px" height="800px" viewBox="0 0 24 24" version="1.1" xml:space="preserve" xmlns="http://www.w3.org/2000/svg" xmlns:xlink="http://www.w3.org/1999/xlink">

<style type="text/css">
	.st0{display:none;}
	.st1{display:inline;}
	.st2{opacity:0.2;fill:none;stroke:#000;stroke-width:5.000000e-02;stroke-miterlimit:10;}
</style>

<g class="st0" id="grid_system"/>

<g id="_icons">

<g>

<path d="M13.2,10.2l-1.7,2.5L11,12.2c-0.4-0.4-1-0.4-1.4,0s-0.4,1,0,1.4l1.4,1.4c0.2,0.2,0.4,0.3,0.7,0.3c0,0,0.1,0,0.1,0    c0.3,0,0.6-0.2,0.7-0.4l2.4-3.6c0.3-0.5,0.2-1.1-0.3-1.4C14.1,9.6,13.5,9.7,13.2,10.2z"/>

<path d="M12,3c-5,0-9,4-9,9c0,1.8,0.6,3.6,1.6,5.1l-1.4,2.4c-0.2,0.3-0.2,0.7,0,1S3.6,21,4,21h8c5,0,9-4,9-9S17,3,12,3z M12,19    H5.8l0.9-1.5c0.2-0.4,0.2-0.8-0.1-1.1C5.6,15.2,5,13.6,5,12c0-3.9,3.1-7,7-7s7,3.1,7,7S15.9,19,12,19z"/>

</g>

</g>

</svg>