<?xml version="1.0" encoding="utf-8"?><!-- Uploaded to: SVG Repo, www.svgrepo.com, Generator: SVG Repo Mixer Tools -->
<svg width="800px" height="800px" viewBox="0 0 24 24" id="Layer_1" data-name="Layer 1" xmlns="http://www.w3.org/2000/svg"><defs><style>.cls-1{fill:none;stroke:#000;stroke-miterlimit:10;stroke-width:1.91px;}.cls-2{fill:#000;}</style></defs><path class="cls-1" d="M1.5,5.3v9.54a3.82,3.82,0,0,0,3.82,3.82H7.23v2.86L13,18.66h5.73a3.82,3.82,0,0,0,3.82-3.82V5.3a3.82,3.82,0,0,0-3.82-3.82H5.32A3.82,3.82,0,0,0,1.5,5.3Z" stroke="#000"/><path class="cls-2" d="M16.44,9.56a2.36,2.36,0,0,0-4.33-1.3,2.35,2.35,0,0,0-4.32,1.3c0,2.75,4.32,4.33,4.32,4.33S16.44,12.31,16.44,9.56Z" fill="#000"/></svg>